<svg xmlns="http://www.w3.org/2000/svg" xmlns:xlink="http://www.w3.org/1999/xlink" width="500" zoomAndPan="magnify" viewBox="0 0 375 374.999991" height="500" preserveAspectRatio="xMidYMid meet" version="1.0"><defs><clipPath id="6fab257d1c"><path d="M 139.675781 162.796875 L 203.3125 162.796875 L 203.3125 223.308594 L 139.675781 223.308594 Z M 139.675781 162.796875 " clip-rule="nonzero"/></clipPath><clipPath id="00d9dcc6b1"><path d="M 145.8125 176.039062 C 148.246094 170.863281 153.722656 160.800781 160.855469 163.15625 C 166.476562 165.011719 165.394531 173.636719 164.742188 178.195312 C 164.582031 179.296875 164.339844 180.390625 164.183594 181.492188 C 166.199219 176.972656 168.207031 172.300781 171.28125 168.378906 C 174.046875 164.847656 177.707031 162.125 182.492188 162.976562 C 187.265625 163.828125 185.59375 169.609375 184.8125 172.953125 C 183.335938 179.289062 181.148438 185.472656 179.859375 191.855469 C 179.839844 193.378906 179.65625 194.753906 181.632812 193.941406 C 183.558594 193.152344 186.011719 189.023438 187.070312 187.1875 C 191.335938 179.789062 194.210938 171.453125 195.816406 163.070312 L 201.78125 163.0625 C 203.683594 163.386719 203.332031 165.417969 203.1875 166.84375 C 202.511719 173.425781 201.109375 180.765625 199.894531 187.304688 C 198.019531 197.402344 194.992188 214.519531 186.148438 220.746094 C 180.136719 224.980469 170.800781 224.136719 167.730469 216.804688 C 166.191406 213.140625 166.535156 207.808594 170.5625 205.988281 C 171.710938 206.75 171.335938 208.296875 171.425781 209.460938 C 172.03125 217.148438 179.984375 218.203125 184.5 212.851562 C 189.304688 207.15625 191.746094 195.246094 193.167969 187.972656 C 193.640625 185.558594 194.136719 183.113281 194.527344 180.683594 C 194.546875 180.574219 194.636719 180.320312 194.449219 180.347656 C 192.992188 184.242188 191.140625 188.171875 189.050781 191.769531 C 186.6875 195.839844 182.140625 203 177.003906 203.371094 C 170.082031 203.875 171.453125 196.710938 172.4375 192.242188 C 173.722656 186.402344 175.757812 180.601562 176.917969 174.742188 C 177.046875 174.09375 177.769531 171.3125 176.875 171.089844 C 176.652344 171.054688 176.476562 171.207031 176.292969 171.304688 C 172.554688 173.277344 168.695312 181.1875 166.980469 185.015625 C 164.332031 190.925781 162.238281 197.09375 160.28125 203.265625 L 151.945312 203.265625 C 151.867188 203.1875 152.25 201.648438 152.308594 201.390625 C 153.996094 193.910156 156.125 186.507812 157.746094 179.015625 C 158.277344 176.5625 159.402344 171.722656 158.773438 169.40625 C 158.503906 168.40625 157.828125 168.074219 156.84375 168.421875 C 155.578125 168.867188 153.40625 172.847656 152.761719 174.128906 C 151.9375 175.761719 151.226562 177.453125 150.613281 179.179688 L 146.246094 192.460938 L 139.675781 190.714844 Z M 145.8125 176.039062 " clip-rule="nonzero"/></clipPath><clipPath id="f63316164f"><path d="M 0.675781 0.796875 L 64.3125 0.796875 L 64.3125 61.308594 L 0.675781 61.308594 Z M 0.675781 0.796875 " clip-rule="nonzero"/></clipPath><clipPath id="b00a5fffcd"><path d="M 6.8125 14.039062 C 9.246094 8.863281 14.722656 -1.199219 21.855469 1.15625 C 27.476562 3.011719 26.394531 11.636719 25.742188 16.195312 C 25.582031 17.296875 25.339844 18.390625 25.183594 19.492188 C 27.199219 14.972656 29.207031 10.300781 32.28125 6.378906 C 35.046875 2.847656 38.707031 0.125 43.492188 0.976562 C 48.265625 1.828125 46.59375 7.609375 45.8125 10.953125 C 44.335938 17.289062 42.148438 23.472656 40.859375 29.855469 C 40.839844 31.378906 40.65625 32.753906 42.632812 31.941406 C 44.558594 31.152344 47.011719 27.023438 48.070312 25.1875 C 52.335938 17.789062 55.210938 9.453125 56.816406 1.070312 L 62.78125 1.0625 C 64.683594 1.386719 64.332031 3.417969 64.1875 4.84375 C 63.511719 11.425781 62.109375 18.765625 60.894531 25.304688 C 59.019531 35.402344 55.992188 52.519531 47.148438 58.746094 C 41.136719 62.980469 31.800781 62.136719 28.730469 54.804688 C 27.191406 51.140625 27.535156 45.808594 31.5625 43.988281 C 32.710938 44.75 32.335938 46.296875 32.425781 47.460938 C 33.03125 55.148438 40.984375 56.203125 45.5 50.851562 C 50.304688 45.15625 52.746094 33.246094 54.167969 25.972656 C 54.640625 23.558594 55.136719 21.113281 55.527344 18.683594 C 55.546875 18.574219 55.636719 18.320312 55.449219 18.347656 C 53.992188 22.242188 52.140625 26.171875 50.050781 29.769531 C 47.6875 33.839844 43.140625 41 38.003906 41.371094 C 31.082031 41.875 32.453125 34.710938 33.4375 30.242188 C 34.722656 24.402344 36.757812 18.601562 37.917969 12.742188 C 38.046875 12.09375 38.769531 9.3125 37.875 9.089844 C 37.652344 9.054688 37.476562 9.207031 37.292969 9.304688 C 33.554688 11.277344 29.695312 19.1875 27.980469 23.015625 C 25.332031 28.925781 23.238281 35.09375 21.28125 41.265625 L 12.945312 41.265625 C 12.867188 41.1875 13.25 39.648438 13.308594 39.390625 C 14.996094 31.910156 17.125 24.507812 18.746094 17.015625 C 19.277344 14.5625 20.402344 9.722656 19.773438 7.40625 C 19.503906 6.40625 18.828125 6.074219 17.84375 6.421875 C 16.578125 6.867188 14.40625 10.847656 13.761719 12.128906 C 12.9375 13.761719 12.226562 15.453125 11.613281 17.179688 L 7.246094 30.460938 L 0.675781 28.714844 Z M 6.8125 14.039062 " clip-rule="nonzero"/></clipPath><clipPath id="c24f5df980"><rect x="0" width="65" y="0" height="62"/></clipPath><clipPath id="83a6f1734c"><path d="M 202 150.890625 L 214 150.890625 L 214 162.992188 L 202 162.992188 Z M 202 150.890625 " clip-rule="nonzero"/></clipPath><clipPath id="d9337d76b0"><path d="M 213.886719 156.960938 C 213.867188 156.980469 213.777344 157.011719 213.742188 157.023438 C 212.070312 157.632812 210.789062 157.617188 209.558594 159.136719 C 208.625 160.289062 208.628906 161.390625 208.125 162.671875 C 208.058594 162.84375 207.898438 162.847656 207.820312 162.6875 C 207.398438 161.371094 207.199219 160.050781 206.253906 158.988281 C 205.125 157.71875 203.695312 157.460938 202.136719 157.003906 C 201.980469 156.945312 201.960938 156.761719 202.125 156.699219 C 203.546875 156.261719 204.929688 156.03125 206.027344 154.945312 C 207.144531 153.839844 207.375 152.449219 207.816406 151.003906 C 207.882812 150.839844 208.066406 150.863281 208.125 151.019531 C 208.578125 152.566406 208.835938 154 210.09375 155.121094 C 211.175781 156.082031 212.492188 156.277344 213.824219 156.703125 C 213.921875 156.734375 213.949219 156.894531 213.882812 156.960938 " clip-rule="nonzero"/></clipPath><clipPath id="afdf925f4f"><path d="M 0 0.890625 L 12 0.890625 L 12 12.960938 L 0 12.960938 Z M 0 0.890625 " clip-rule="nonzero"/></clipPath><clipPath id="7a5a7d3d6e"><path d="M 11.886719 6.960938 C 11.867188 6.980469 11.777344 7.011719 11.742188 7.023438 C 10.070312 7.632812 8.789062 7.617188 7.558594 9.136719 C 6.625 10.289062 6.628906 11.390625 6.125 12.671875 C 6.058594 12.84375 5.898438 12.847656 5.820312 12.6875 C 5.398438 11.371094 5.199219 10.050781 4.253906 8.988281 C 3.125 7.71875 1.695312 7.460938 0.136719 7.003906 C -0.0195312 6.945312 -0.0390625 6.761719 0.125 6.699219 C 1.546875 6.261719 2.929688 6.03125 4.027344 4.945312 C 5.144531 3.839844 5.375 2.449219 5.816406 1.003906 C 5.882812 0.839844 6.066406 0.863281 6.125 1.019531 C 6.578125 2.566406 6.835938 4 8.09375 5.121094 C 9.175781 6.082031 10.492188 6.277344 11.824219 6.703125 C 11.921875 6.734375 11.949219 6.894531 11.882812 6.960938 " clip-rule="nonzero"/></clipPath><clipPath id="021950a033"><rect x="0" width="12" y="0" height="13"/></clipPath><clipPath id="3d7849d97e"><path d="M 195.699219 212.964844 L 205.847656 212.964844 L 205.847656 224 L 195.699219 224 Z M 195.699219 212.964844 " clip-rule="nonzero"/></clipPath><clipPath id="d087961059"><path d="M 199.449219 221.371094 L 201.640625 221.328125 C 201.691406 221.328125 201.988281 221.195312 202.050781 221.152344 C 202.476562 220.867188 202.429688 220.007812 201.953125 219.761719 C 201.582031 219.570312 200.824219 219.558594 200.394531 219.554688 C 200.085938 219.550781 199.777344 219.578125 199.46875 219.574219 Z M 199.476562 217.308594 L 201.242188 217.273438 C 201.523438 217.269531 202.003906 217.015625 202.046875 216.703125 C 202.125 216.144531 202.03125 215.75 201.449219 215.605469 C 201.398438 215.59375 201.074219 215.539062 201.050781 215.539062 L 199.492188 215.570312 Z M 203.710938 218.070312 C 203.71875 218.144531 203.789062 218.152344 203.84375 218.175781 C 205.121094 218.734375 205.820312 219.242188 205.769531 220.800781 C 205.703125 222.980469 204.113281 223.855469 202.113281 223.910156 C 200.363281 223.957031 198.53125 223.910156 196.785156 223.851562 C 196.617188 223.84375 195.949219 223.917969 195.882812 223.820312 L 196.011719 212.96875 L 202.320312 212.984375 C 204.28125 213.15625 205.707031 214.019531 205.457031 216.203125 C 205.355469 217.085938 204.566406 217.890625 203.710938 218.074219 " clip-rule="nonzero"/></clipPath><clipPath id="8cd3a37ba0"><path d="M 0.839844 0.964844 L 10.847656 0.964844 L 10.847656 12 L 0.839844 12 Z M 0.839844 0.964844 " clip-rule="nonzero"/></clipPath><clipPath id="73db7823a2"><path d="M 4.449219 9.371094 L 6.640625 9.328125 C 6.691406 9.328125 6.988281 9.195312 7.050781 9.152344 C 7.476562 8.867188 7.429688 8.007812 6.953125 7.761719 C 6.582031 7.570312 5.824219 7.558594 5.394531 7.554688 C 5.085938 7.550781 4.777344 7.578125 4.46875 7.574219 Z M 4.476562 5.308594 L 6.242188 5.273438 C 6.523438 5.269531 7.003906 5.015625 7.046875 4.703125 C 7.125 4.144531 7.03125 3.75 6.449219 3.605469 C 6.398438 3.59375 6.074219 3.539062 6.050781 3.539062 L 4.492188 3.570312 Z M 8.710938 6.070312 C 8.71875 6.144531 8.789062 6.152344 8.84375 6.175781 C 10.121094 6.734375 10.820312 7.242188 10.769531 8.800781 C 10.703125 10.980469 9.113281 11.855469 7.113281 11.910156 C 5.363281 11.957031 3.53125 11.910156 1.785156 11.851562 C 1.617188 11.84375 0.949219 11.917969 0.882812 11.820312 L 1.011719 0.96875 L 7.320312 0.984375 C 9.28125 1.15625 10.707031 2.019531 10.457031 4.203125 C 10.355469 5.085938 9.566406 5.890625 8.710938 6.074219 " clip-rule="nonzero"/></clipPath><clipPath id="080b51e6af"><rect x="0" width="11" y="0" height="12"/></clipPath><clipPath id="872216d718"><path d="M 216.78125 212.574219 L 226.34375 212.574219 L 226.34375 223.894531 L 216.78125 223.894531 Z M 216.78125 212.574219 " clip-rule="nonzero"/></clipPath><clipPath id="4a65be95ef"><path d="M 220.253906 219.382812 L 220.246094 221.300781 L 220.320312 221.386719 L 221.953125 221.351562 C 222.054688 221.351562 222.417969 221.230469 222.523438 221.175781 C 223.042969 220.914062 223.105469 220.167969 222.785156 219.734375 C 222.53125 219.394531 222.0625 219.4375 221.703125 219.40625 C 221.636719 219.402344 221.5625 219.355469 221.546875 219.355469 Z M 220.121094 215.402344 L 220.160156 217.246094 C 220.273438 217.371094 220.5 217.324219 220.660156 217.316406 C 221.050781 217.292969 221.546875 217.257812 221.894531 217.105469 C 222.355469 216.910156 222.570312 216.515625 222.429688 216.011719 C 222.203125 215.203125 221.097656 215.371094 220.460938 215.371094 C 220.328125 215.371094 220.203125 215.269531 220.121094 215.402344 M 216.90625 212.933594 L 217.085938 212.847656 C 219.296875 213 223.480469 212.035156 225.023438 214.070312 C 225.726562 214.992188 225.582031 216.835938 224.644531 217.578125 L 224.074219 217.933594 C 225.039062 218.113281 225.898438 218.746094 226.152344 219.730469 C 226.746094 222.042969 225.316406 223.476562 223.109375 223.757812 L 217.121094 223.820312 Z M 216.90625 212.933594 " clip-rule="nonzero"/></clipPath><clipPath id="bf14820fd3"><path d="M 0.78125 0.574219 L 10.34375 0.574219 L 10.34375 11.894531 L 0.78125 11.894531 Z M 0.78125 0.574219 " clip-rule="nonzero"/></clipPath><clipPath id="9382640301"><path d="M 4.253906 7.382812 L 4.246094 9.300781 L 4.320312 9.386719 L 5.953125 9.351562 C 6.054688 9.351562 6.417969 9.230469 6.523438 9.175781 C 7.042969 8.914062 7.105469 8.167969 6.785156 7.734375 C 6.53125 7.394531 6.0625 7.4375 5.703125 7.40625 C 5.636719 7.402344 5.5625 7.355469 5.546875 7.355469 Z M 4.121094 3.402344 L 4.160156 5.246094 C 4.273438 5.371094 4.5 5.324219 4.660156 5.316406 C 5.050781 5.292969 5.546875 5.257812 5.894531 5.105469 C 6.355469 4.910156 6.570312 4.515625 6.429688 4.011719 C 6.203125 3.203125 5.097656 3.371094 4.460938 3.371094 C 4.328125 3.371094 4.203125 3.269531 4.121094 3.402344 M 0.90625 0.933594 L 1.085938 0.847656 C 3.296875 1 7.480469 0.0351562 9.023438 2.070312 C 9.726562 2.992188 9.582031 4.835938 8.644531 5.578125 L 8.074219 5.933594 C 9.039062 6.113281 9.898438 6.746094 10.152344 7.730469 C 10.746094 10.042969 9.316406 11.476562 7.109375 11.757812 L 1.121094 11.820312 Z M 0.90625 0.933594 " clip-rule="nonzero"/></clipPath><clipPath id="a647c3a8cb"><rect x="0" width="11" y="0" height="12"/></clipPath><clipPath id="a7a8044442"><path d="M 205.847656 212.769531 L 216.585938 212.769531 L 216.585938 223.894531 L 205.847656 223.894531 Z M 205.847656 212.769531 " clip-rule="nonzero"/></clipPath><clipPath id="5dbafdd3c4"><path d="M 210.652344 219.410156 L 212.339844 219.378906 L 211.449219 215.703125 Z M 213.898438 212.859375 L 216.433594 223.730469 L 213.375 223.710938 C 213.320312 223.6875 213.300781 223.644531 213.28125 223.59375 C 213.164062 223.320312 212.972656 221.871094 212.8125 221.769531 L 210.175781 221.75 L 209.777344 223.613281 L 209.703125 223.699219 L 205.882812 223.621094 L 209 212.910156 Z M 213.898438 212.859375 " clip-rule="nonzero"/></clipPath><clipPath id="71071d204f"><path d="M 0.847656 0.769531 L 11.480469 0.769531 L 11.480469 11.894531 L 0.847656 11.894531 Z M 0.847656 0.769531 " clip-rule="nonzero"/></clipPath><clipPath id="91a0d694ee"><path d="M 5.652344 7.410156 L 7.339844 7.378906 L 6.449219 3.703125 Z M 8.898438 0.859375 L 11.433594 11.730469 L 8.375 11.710938 C 8.320312 11.6875 8.300781 11.644531 8.28125 11.59375 C 8.164062 11.320312 7.972656 9.871094 7.8125 9.769531 L 5.175781 9.75 L 4.777344 11.613281 L 4.703125 11.699219 L 0.882812 11.621094 L 4 0.910156 Z M 8.898438 0.859375 " clip-rule="nonzero"/></clipPath><clipPath id="2aa00ac51f"><rect x="0" width="12" y="0" height="12"/></clipPath><clipPath id="777c731aeb"><path d="M 225.757812 212.964844 L 235.324219 212.964844 L 235.324219 224.285156 L 225.757812 224.285156 Z M 225.757812 212.964844 " clip-rule="nonzero"/></clipPath><clipPath id="e39dec37ed"><path d="M 229.175781 212.980469 C 229.261719 213.003906 229.449219 213.960938 229.503906 214.144531 C 229.835938 215.304688 230.257812 216.464844 230.792969 217.539062 L 232.394531 213.128906 L 235.324219 213.070312 C 234.96875 215.53125 233.738281 217.792969 232.515625 219.917969 C 232.53125 220.898438 232.519531 221.882812 232.558594 222.863281 C 232.566406 223.042969 232.761719 224.042969 232.507812 224.046875 L 229.394531 224.109375 C 229.359375 224.109375 229.179688 223.976562 229.164062 223.917969 C 229.125 223.785156 229.207031 223.433594 229.199219 223.292969 C 229.148438 222.230469 229.109375 221.164062 229.105469 220.097656 C 227.757812 217.882812 226.519531 215.558594 225.828125 213.046875 Z M 229.175781 212.980469 " clip-rule="nonzero"/></clipPath><clipPath id="847a5e4342"><path d="M 0.757812 0.964844 L 10.324219 0.964844 L 10.324219 12.160156 L 0.757812 12.160156 Z M 0.757812 0.964844 " clip-rule="nonzero"/></clipPath><clipPath id="23f41161be"><path d="M 4.175781 0.980469 C 4.261719 1.003906 4.449219 1.960938 4.503906 2.144531 C 4.835938 3.304688 5.257812 4.464844 5.792969 5.539062 L 7.394531 1.128906 L 10.324219 1.070312 C 9.96875 3.53125 8.738281 5.792969 7.515625 7.917969 C 7.53125 8.898438 7.519531 9.882812 7.558594 10.863281 C 7.566406 11.042969 7.761719 12.042969 7.507812 12.046875 L 4.394531 12.109375 C 4.359375 12.109375 4.179688 11.976562 4.164062 11.917969 C 4.125 11.785156 4.207031 11.433594 4.199219 11.292969 C 4.148438 10.230469 4.109375 9.164062 4.105469 8.097656 C 2.757812 5.882812 1.519531 3.558594 0.828125 1.046875 Z M 4.175781 0.980469 " clip-rule="nonzero"/></clipPath><clipPath id="1a23fadc22"><rect x="0" width="11" y="0" height="13"/></clipPath></defs><g clip-path="url(#6fab257d1c)"><g clip-path="url(#00d9dcc6b1)"><g transform="matrix(1, 0, 0, 1, 139, 162)"><g clip-path="url(#c24f5df980)"><g clip-path="url(#f63316164f)"><g clip-path="url(#b00a5fffcd)"><rect x="-221.5" width="540" fill="#0682f0" height="539.999987" y="-244.499998" fill-opacity="1"/></g></g></g></g></g></g><g clip-path="url(#83a6f1734c)"><g clip-path="url(#d9337d76b0)"><g transform="matrix(1, 0, 0, 1, 202, 150)"><g clip-path="url(#021950a033)"><g clip-path="url(#afdf925f4f)"><g clip-path="url(#7a5a7d3d6e)"><rect x="-284.5" width="540" fill="#0682f0" height="539.999987" y="-232.499998" fill-opacity="1"/></g></g></g></g></g></g><g clip-path="url(#3d7849d97e)"><g clip-path="url(#d087961059)"><g transform="matrix(1, 0, 0, 1, 195, 212)"><g clip-path="url(#080b51e6af)"><g clip-path="url(#8cd3a37ba0)"><g clip-path="url(#73db7823a2)"><rect x="-277.5" width="540" fill="#0682f0" height="539.999987" y="-294.499998" fill-opacity="1"/></g></g></g></g></g></g><g clip-path="url(#872216d718)"><g clip-path="url(#4a65be95ef)"><g transform="matrix(1, 0, 0, 1, 216, 212)"><g clip-path="url(#a647c3a8cb)"><g clip-path="url(#bf14820fd3)"><g clip-path="url(#9382640301)"><rect x="-298.5" width="540" fill="#0682f0" height="539.999987" y="-294.499998" fill-opacity="1"/></g></g></g></g></g></g><g clip-path="url(#a7a8044442)"><g clip-path="url(#5dbafdd3c4)"><g transform="matrix(1, 0, 0, 1, 205, 212)"><g clip-path="url(#2aa00ac51f)"><g clip-path="url(#71071d204f)"><g clip-path="url(#91a0d694ee)"><rect x="-287.5" width="540" fill="#0682f0" height="539.999987" y="-294.499998" fill-opacity="1"/></g></g></g></g></g></g><g clip-path="url(#777c731aeb)"><g clip-path="url(#e39dec37ed)"><g transform="matrix(1, 0, 0, 1, 225, 212)"><g clip-path="url(#1a23fadc22)"><g clip-path="url(#847a5e4342)"><g clip-path="url(#23f41161be)"><rect x="-307.5" width="540" fill="#0682f0" height="539.999987" y="-294.499998" fill-opacity="1"/></g></g></g></g></g></g></svg>